<?xml version="1.0" encoding="UTF-8" standalone="no"?>
<svg
   xmlns:dc="http://purl.org/dc/elements/1.1/"
   xmlns:cc="http://creativecommons.org/ns#"
   xmlns:rdf="http://www.w3.org/1999/02/22-rdf-syntax-ns#"
   xmlns:svg="http://www.w3.org/2000/svg"
   xmlns="http://www.w3.org/2000/svg"
   xmlns:sodipodi="http://sodipodi.sourceforge.net/DTD/sodipodi-0.dtd"
   xmlns:inkscape="http://www.inkscape.org/namespaces/inkscape"
   enable-background="new 0 0 64 64"
   version="1.1"
   viewBox="-16 -16 64 64"
   xml:space="preserve"
   preserveAspectRatio="xMinYMin"
   id="svg3389"
   inkscape:version="0.91 r13725"
   sodipodi:docname="1462245741_social_media_logo_facebook.svg"><metadata
     id="metadata3402"><rdf:RDF><cc:Work
         rdf:about=""><dc:format>image/svg+xml</dc:format><dc:type
           rdf:resource="http://purl.org/dc/dcmitype/StillImage" /></cc:Work></rdf:RDF></metadata><defs
     id="defs3400" /><sodipodi:namedview
     pagecolor="#ffffff"
     bordercolor="#666666"
     borderopacity="1"
     objecttolerance="10"
     gridtolerance="10"
     guidetolerance="10"
     inkscape:pageopacity="0"
     inkscape:pageshadow="2"
     inkscape:window-width="1154"
     inkscape:window-height="718"
     id="namedview3398"
     showgrid="false"
     inkscape:zoom="16"
     inkscape:cx="14.298064"
     inkscape:cy="14.87112"
     inkscape:window-x="0"
     inkscape:window-y="0"
     inkscape:window-maximized="0"
     inkscape:current-layer="svg3389" /><g
     id="Layer_4_copy_2"><g
       id="g3392"><path
         d="M29.5,24.5V0H16H2.5v24.5L16,32L29.5,24.5z M3.5,1H16h12.5v22.912L16,30.856L3.5,23.912V1z"
         fill="#414753"
         id="path3394" /><path
         d="M17.249,22.123v-8.124h2.239l0.297-2.799h-2.536l0.003-1.402c0-0.73,0.07-1.121,1.117-1.121h1.4v-2.8    h-2.24c-2.69,0-3.637,1.358-3.637,3.642V11.2h-1.677V14h1.677v8.124H17.249z"
         fill="#414753"
         id="path3396" /></g></g><path
     style="fill:#ffffff"
     d="m 13.935564,18.01638 0,-4.0625 -0.84375,0 -0.84375,0 0,-1.375 0,-1.375 0.837723,0 0.837723,0 0.02665,-1.3906253 C 13.97893,8.3114761 14.053647,7.9042218 14.413336,7.2886389 14.615921,6.9419286 15.096563,6.5010853 15.488567,6.302442 16.088853,5.9982541 16.470156,5.9422655 18.169939,5.9087228 l 1.578125,-0.031142 0,1.3753508 0,1.3753508 -0.995445,0.022174 c -0.89285,0.019888 -1.013629,0.035678 -1.171876,0.1531987 -0.300284,0.2230052 -0.330763,0.3530811 -0.331758,1.4158503 l -9.21e-4,0.984375 1.258495,0 1.258495,0 -0.03561,0.265625 c -0.01959,0.146093 -0.08553,0.764843 -0.146547,1.375 l -0.110937,1.109375 -1.111948,0 -1.111947,0 0,4.0625 0,4.0625 -1.65625,0 -1.65625,0 0,-4.0625 z"
     id="path3410"
     inkscape:connector-curvature="0" /><path
     style="fill:#ffffff"
     d="m 9.2480637,28.216274 -6.71875,-3.734632 -0.015782,-12.232631 -0.015782,-12.23263125 13.5001565,0 13.500157,0 -0.0022,12.23437525 -0.0022,12.234375 -6.732898,3.734375 c -3.703097,2.053906 -6.74662,3.733705 -6.763389,3.732888 -0.01677,-8.18e-4 -3.053926,-1.682071 -6.7492383,-3.736119 z m 12.9971493,-0.798916 6.252851,-3.474022 0,-11.494728 0,-11.49472826 -12.5,0 -12.5000003,0 0,11.49473826 0,11.494739 6.234375,3.469556 c 3.4289063,1.908256 6.2401233,3.471561 6.2471493,3.474012 0.007,0.0024 2.826557,-1.558855 6.265625,-3.469567 z"
     id="path3412"
     inkscape:connector-curvature="0" /></svg>
