<?xml version="1.0" encoding="UTF-8" standalone="no"?>
<svg
   xmlns:dc="http://purl.org/dc/elements/1.1/"
   xmlns:cc="http://creativecommons.org/ns#"
   xmlns:rdf="http://www.w3.org/1999/02/22-rdf-syntax-ns#"
   xmlns:svg="http://www.w3.org/2000/svg"
   xmlns="http://www.w3.org/2000/svg"
   xmlns:sodipodi="http://sodipodi.sourceforge.net/DTD/sodipodi-0.dtd"
   xmlns:inkscape="http://www.inkscape.org/namespaces/inkscape"
   enable-background="new -16 -16 64 64"
   id="Layer_1"
   version="1.1"
   viewBox="-16 -16 64 64"
   xml:space="preserve"
   inkscape:version="0.91 r13725"
   sodipodi:docname="1462245729_social_media_logo_instagram.svg"><metadata
     id="metadata11"><rdf:RDF><cc:Work
         rdf:about=""><dc:format>image/svg+xml</dc:format><dc:type
           rdf:resource="http://purl.org/dc/dcmitype/StillImage" /></cc:Work></rdf:RDF></metadata><defs
     id="defs9" /><sodipodi:namedview
     pagecolor="#ffffff"
     bordercolor="#666666"
     borderopacity="1"
     objecttolerance="10"
     gridtolerance="10"
     guidetolerance="10"
     inkscape:pageopacity="0"
     inkscape:pageshadow="2"
     inkscape:window-width="1020"
     inkscape:window-height="632"
     id="namedview7"
     showgrid="false"
     inkscape:zoom="7.375"
     inkscape:cx="16"
     inkscape:cy="16"
     inkscape:window-x="0"
     inkscape:window-y="23"
     inkscape:window-maximized="0"
     inkscape:current-layer="Layer_1" /><path
     d="M29.5,24.5V0H16H2.5v24.5L16,32L29.5,24.5z M3.5,1H16h12.5v22.912L16,30.856L3.5,23.912V1z"
     fill="#414753"
     id="path3" /><path
     d="M24.294,19.664V7.224c0-1.171-0.903-2.074-2.074-2.074H9.78c-1.171,0-2.074,0.903-2.074,2.074v12.44  c0,1.17,0.903,2.074,2.074,2.074h12.44C23.39,21.738,24.294,20.834,24.294,19.664z M19.111,7.742c0-0.287,0.232-0.518,0.518-0.518  h2.074c0.287,0,0.518,0.232,0.518,0.518v2.074c0,0.287-0.232,0.518-0.518,0.518h-2.075c-0.287,0-0.518-0.232-0.518-0.518V7.742  H19.111z M16.012,10.186c1.84,0,3.33,1.444,3.33,3.227c0,1.782-1.49,3.227-3.33,3.227c-1.838,0-3.329-1.446-3.329-3.227  C12.683,11.63,14.175,10.186,16.012,10.186z M21.702,19.664H10.298c-0.363,0-0.518-0.155-0.518-0.518v-7.257l1.292,0.281  c-0.139,0.451-0.214,0.928-0.214,1.423c0,2.757,2.309,4.994,5.154,4.994c2.846,0,5.154-2.236,5.154-4.994  c0-0.495-0.075-0.972-0.214-1.423l1.268-0.281v7.257C22.22,19.509,22.065,19.664,21.702,19.664z"
     fill="#414753"
     id="path5" /><path
     style="fill:#ffffff"
     d="M 9.2067797,28.162511 2.5627119,24.466978 2.5280926,12.233489 2.4934733,0 15.985719,0 l 13.492247,0 -0.0045,12.237288 -0.0045,12.237288 -6.677067,3.694916 c -3.672386,2.032203 -6.736472,3.693483 -6.809078,3.691734 -0.07261,-0.0017 -3.121841,-1.666171 -6.7760783,-3.698715 z m 13.1307623,-0.755462 6.191272,-3.440408 0,-11.508744 0,-11.50874446 -12.542373,0 -12.5423732,0 0,11.49999246 0,11.499993 6.2711864,3.482533 c 3.4491528,1.915392 6.3071488,3.467514 6.3511008,3.449159 0.04395,-0.01835 2.865988,-1.581557 6.271187,-3.473781 z"
     id="path3339"
     inkscape:connector-curvature="0" /><path
     style="fill:#ffffff"
     d="M 8.8,21.385557 C 7.7595298,20.800651 7.7834991,20.987913 7.7832616,13.442191 7.7830556,6.8994035 7.7894407,6.7374184 8.0670177,6.2435368 8.2231995,5.9656488 8.5435385,5.6217479 8.7788821,5.4793124 9.1849212,5.2335683 9.5531085,5.220339 15.986441,5.220339 c 7.549335,0 7.329688,-0.025739 7.919113,0.9279715 0.278812,0.451128 0.284277,0.5915557 0.284277,7.3052695 l 0,6.845299 -0.307788,0.46073 C 23.245684,21.71218 23.393414,21.694725 15.986441,21.692475 9.3505029,21.690454 9.3417092,21.690075 8.8,21.385557 Z m 13.409222,-1.93902 c 0.04527,-0.117963 0.0823,-1.893983 0.0823,-3.94671 0,-3.179398 -0.0287,-3.721217 -0.193761,-3.657878 -0.106568,0.04089 -0.396399,0.112357 -0.644068,0.158806 l -0.450306,0.08445 0,1.381125 c 0,1.252213 -0.03702,1.456523 -0.396614,2.18891 -1.888563,3.846443 -7.472429,3.748423 -9.262956,-0.162604 -0.365707,-0.79881 -0.496116,-2.245435 -0.273784,-3.037085 0.09332,-0.332274 0.06408,-0.364469 -0.406779,-0.447908 -0.279029,-0.04945 -0.614104,-0.121268 -0.7446129,-0.159605 -0.221924,-0.06519 -0.2372882,0.171607 -0.2372882,3.657157 0,2.049773 0.037037,3.823377 0.082304,3.94134 0.073374,0.191208 0.7485525,0.21448 6.2227815,0.21448 5.474229,0 6.149407,-0.02327 6.222781,-0.21448 z m -4.464499,-3.233383 c 0.795112,-0.465967 1.369111,-1.256545 1.572645,-2.166033 0.133781,-0.597797 0.123199,-0.837222 -0.06573,-1.487117 -0.798265,-2.7459354 -4.601646,-3.2764394 -6.101177,-0.851005 -0.511744,0.827726 -0.628795,1.979809 -0.291011,2.864284 0.289966,0.759267 1.145058,1.618973 1.879734,1.889879 0.870052,0.320825 2.223612,0.208233 3.00554,-0.250008 z m 4.333727,-5.985551 c 0.267931,-0.2679301 0.309079,-2.6197349 0.05036,-2.8784505 -0.221623,-0.2216236 -2.70719,-0.2216236 -2.928814,0 -0.103045,0.1030453 -0.162712,0.6215766 -0.162712,1.4140436 0,1.6324579 0.04367,1.6774819 1.627119,1.6774819 0.910998,0 1.252415,-0.05145 1.414043,-0.213075 z"
     id="path3341"
     inkscape:connector-curvature="0" /></svg>
