<?xml version="1.0" encoding="UTF-8" standalone="no"?>
<svg
   xmlns:dc="http://purl.org/dc/elements/1.1/"
   xmlns:cc="http://creativecommons.org/ns#"
   xmlns:rdf="http://www.w3.org/1999/02/22-rdf-syntax-ns#"
   xmlns:svg="http://www.w3.org/2000/svg"
   xmlns="http://www.w3.org/2000/svg"
   xmlns:sodipodi="http://sodipodi.sourceforge.net/DTD/sodipodi-0.dtd"
   xmlns:inkscape="http://www.inkscape.org/namespaces/inkscape"
   enable-background="new -16 -16 64 64"
   version="1.1"
   viewBox="-16 -16 64 64"
   xml:space="preserve"
   id="svg2"
   inkscape:version="0.91 r13725"
   sodipodi:docname="1462245740_social_media_logo_twitter.svg"><metadata
     id="metadata15"><rdf:RDF><cc:Work
         rdf:about=""><dc:format>image/svg+xml</dc:format><dc:type
           rdf:resource="http://purl.org/dc/dcmitype/StillImage" /></cc:Work></rdf:RDF></metadata><defs
     id="defs13" /><sodipodi:namedview
     pagecolor="#ffffff"
     bordercolor="#666666"
     borderopacity="1"
     objecttolerance="10"
     gridtolerance="10"
     guidetolerance="10"
     inkscape:pageopacity="0"
     inkscape:pageshadow="2"
     inkscape:window-width="640"
     inkscape:window-height="480"
     id="namedview11"
     showgrid="false"
     inkscape:zoom="7.375"
     inkscape:cx="16"
     inkscape:cy="16"
     inkscape:window-x="0"
     inkscape:window-y="23"
     inkscape:window-maximized="0"
     inkscape:current-layer="svg2" /><g
     id="Layer_4_copy_2"><g
       id="g5"><path
         d="M29.5,24.5V0H16H2.5v24.5L16,32L29.5,24.5z M3.5,1H16h12.5v22.912L16,30.856L3.5,23.912V1z"
         fill="#414753"
         id="path7" /><path
         d="M21.64,14.321c0.392-0.942,0.783-2.665,0.783-3.49c0-0.536,0.035-0.605,0.679-1.245    c0.38-0.372,0.737-0.779,0.806-0.896c0.115-0.221,0.103-0.221-0.483-0.024c-0.978,0.349-1.117,0.303-0.633-0.221    c0.356-0.372,0.783-1.047,0.783-1.245c0-0.035-0.172,0.023-0.369,0.128c-0.207,0.116-0.667,0.291-1.013,0.395l-0.621,0.198    l-0.564-0.384c-0.311-0.209-0.748-0.442-0.978-0.512c-0.587-0.163-1.485-0.14-2.015,0.047c-1.439,0.523-2.348,1.874-2.244,3.351    l0.035,0.57l-0.576-0.07c-2.094-0.268-3.925-1.175-5.479-2.7L8.99,7.468L8.795,8.027c-0.414,1.245-0.149,2.56,0.714,3.445    c0.46,0.489,0.357,0.559-0.437,0.268c-0.276-0.093-0.518-0.163-0.541-0.128c-0.08,0.082,0.196,1.14,0.414,1.559    c0.299,0.582,0.909,1.152,1.577,1.49l0.564,0.268l-0.667,0.012c-0.644,0-0.667,0.012-0.598,0.256    c0.23,0.756,1.139,1.559,2.152,1.909l0.714,0.244l-0.621,0.372c-0.921,0.536-2.003,0.838-3.085,0.861    c-0.519,0.012-0.944,0.058-0.944,0.093c0,0.116,1.404,0.767,2.221,1.024c2.451,0.756,5.364,0.43,7.551-0.861    C19.361,17.918,20.914,16.091,21.64,14.321z"
         fill="#414753"
         id="path9" /></g></g><path
     style="fill:#ffffff"
     d="m 9.2407403,28.172145 -6.7457002,-3.751806 -6.24e-5,-12.169492 -6.24e-5,-12.16949107 13.4915257,0 13.491525,0 0,12.17756507 0,12.177564 -6.20339,3.444803 c -3.411864,1.894641 -6.447457,3.579321 -6.745762,3.743733 l -0.542373,0.29893 -6.7457007,-3.751806 z m 13.0507847,-0.738507 6.169492,-3.426557 0.03466,-11.556083 0.03466,-11.55608275 -12.543895,0 -12.5438961,0 0.03466,11.54725075 0.03466,11.547251 6.1694915,3.432784 c 3.3932201,1.888032 6.2305081,3.433956 6.3050851,3.43539 0.07458,0.0014 2.911864,-1.539346 6.305084,-3.423953 z"
     id="path3343"
     inkscape:connector-curvature="0" /><path
     style="fill:#ffffff"
     d="M 10.867137,19.810565 C 10.43796,19.701776 9.6447398,19.403173 9.1044248,19.147002 l -0.9823909,-0.465764 0.6511993,-0.01181 c 1.0033734,-0.01819 2.3935068,-0.382277 3.1845478,-0.834059 0.393772,-0.224892 0.686402,-0.456704 0.650288,-0.515137 -0.03611,-0.05843 -0.299833,-0.183525 -0.586044,-0.277984 -0.750722,-0.24776 -1.712548,-0.989727 -1.970725,-1.520247 l -0.2226892,-0.457598 0.6382372,-0.06858 0.638237,-0.06858 -0.438848,-0.239042 C 9.6070506,14.111264 8.8915176,13.208055 8.6657919,12.163069 8.5684151,11.712268 8.57459,11.704085 8.9543292,11.780692 9.1677532,11.823748 9.4491525,11.900284 9.579661,11.950774 9.9304979,12.086502 9.8743508,11.781794 9.4574186,11.28737 9.2596767,11.052876 9.0156089,10.664672 8.9150457,10.424694 8.7002612,9.9121463 8.6735241,8.5245346 8.8685489,8.0115808 L 9.0048943,7.652965 9.8515997,8.3872514 C 11.559897,9.868734 12.819721,10.518807 14.66773,10.87239 c 0.551971,0.105609 1.043979,0.191865 1.09335,0.191678 0.04937,-1.89e-4 0.09544,-0.381542 0.102379,-0.847457 0.01508,-1.0128812 0.351457,-1.7554899 1.088183,-2.4023434 0.691258,-0.6069326 1.255908,-0.8176574 2.190963,-0.8176574 0.671583,0 0.914468,0.074676 1.597575,0.4911826 l 0.805583,0.4911827 0.862015,-0.2958348 c 0.474107,-0.1627092 0.895013,-0.2628356 0.935346,-0.2225031 0.04033,0.040332 -0.153723,0.3642903 -0.431235,0.7199064 -0.55436,0.7103801 -0.456052,0.8726927 0.356915,0.5892911 0.232446,-0.081031 0.449961,-0.1199966 0.483367,-0.08659 0.03341,0.033406 -0.244068,0.3845288 -0.616609,0.7802724 -0.660149,0.7012627 -0.681304,0.7495817 -0.833127,1.9028717 -0.522299,3.967571 -2.936797,7.103621 -6.305362,8.18967 -1.376416,0.443766 -3.891123,0.568525 -5.129936,0.254506 z"
     id="path3345"
     inkscape:connector-curvature="0" /></svg>
